o Button
v -8 1.5 0
v -12 0 0
v 12 0 0
v 8 1.5 0
v 8 1.5 0
v 12 0 0
v 0 0 -6
v 0 1.5 -4
v 0 1.5 -4
v 0 0 -6
v -12 0 0
v -8 1.5 0
v -8 1.5 0
v 8 1.5 0
v 0 1.5 -4
vn 0 0 1
vn 0 0 1
vn 0 0 1
vn 0 0 1
vn 0.28734788556634538 0.7662610281769211 -0.57469577113269077
vn 0.28734788556634544 0.7662610281769211 -0.57469577113269088
vn 0.28734788556634544 0.7662610281769211 -0.57469577113269088
vn 0.28734788556634538 0.7662610281769211 -0.57469577113269077
vn -0.28734788556634538 0.7662610281769211 -0.57469577113269077
vn -0.28734788556634544 0.7662610281769211 -0.57469577113269088
vn -0.28734788556634544 0.7662610281769211 -0.57469577113269088
vn -0.28734788556634538 0.7662610281769211 -0.57469577113269077
vn 0 1 0
vn 0 1 0
vn 0 1 0
vt 1 0
vt 1 1
vt 0.5 1
vt 0.5 0
vt 0.5 0
vt 0.5 1
vt 0 1
vt 0 0
vt 0 0
vt 0 1
vt 1 1
vt 1 0
g Button
f 1/1/1 2/2/2 3/3/3 4/4/4
f 5/5/5 6/6/6 7/7/7 8/8/8
f 9/9/9 10/10/10 11/11/11 12/12/12
f 13//13 14//14 15//15