o SliderKnob
v -0.426776695296637 -0.5 -1.17677669529664
v 0.426776695296637 -0.5 -1.17677669529664
v -0.426776695296637 -0.5 1.17677669529664
v 0.426776695296637 -0.5 1.17677669529664
v -0.25 0 1
v 0.25 0 -1
v -0.25 0 -1
v 0.25 0 1
v 0.375 -0.0732233047033631 -1.125
v -0.375 -0.0732233047033631 -1.125
v 0.426776695296637 -0.25 -1.17677669529664
v -0.426776695296637 -0.25 -1.17677669529664
v 0.375 -0.0732233047033631 1.125
v 0.426776695296637 -0.25 1.17677669529664
v -0.375 -0.0732233047033631 1.125
v -0.426776695296637 -0.25 1.17677669529664
vn 0 -1 0
vn 0 1 0
vn 0 0.707106781186548 -0.707106781186548
vn 0 0 -1
vn 0.707106781186548 0.707106781186548 0
vn 1 0 0
vn 0 0.707106781186548 0.707106781186548
vn 0 0 1
vn -0.707106781186548 0.707106781186548 0
vn -1 0 0
g SliderKnob
f 1//1 2//1 3//1
f 2//1 4//1 3//1
f 5//2 6//2 7//2
f 5//2 8//2 6//2
f 7//2 6//2 9//3 10//3
f 10//3 9//3 11//4 12//4
f 12//4 11//4 2//4 1//4
f 6//2 8//2 13//5 9//5
f 9//5 13//5 14//6 11//6
f 11//6 14//6 4//6 2//6
f 8//2 5//2 15//7 13//7
f 13//7 15//7 16//8 14//8
f 14//8 16//8 3//8 4//8
f 5//2 7//2 10//9 15//9
f 15//9 10//9 12//10 16//10
f 16//10 12//10 1//10 3//10
#h 
