o LetterSegment1
v 0.058653846153846154 0 0.11498461538461539
v 0.0673076923076923 0 0.1236346153846154
v 0.075961538461538455 0 0.11498461538461539
v 0.058653846153846154 0 0.11498461538461539
v 0.075961538461538455 0 0.11498461538461539
v 0.075961538461538455 0 0.010015384615384612
v 0.058653846153846154 0 0.11498461538461539
v 0.075961538461538455 0 0.010015384615384612
v 0.0673076923076923 0 0.0013653846153846034
v 0.0673076923076923 0 0.0013653846153846034
v 0.058653846153846154 0 0.010015384615384612
v 0.058653846153846154 0 0.11498461538461539
vn 0 1 0
vn 0 1 0
vn 0 1 0
vn 0 1 0
vn 0 1 0
vn 0 1 0
vn 0 1 0
vn 0 1 0
vn 0 1 0
vn 0 1 0
vn 0 1 0
vn 0 1 0

g LetterSegment1
f 1//1 2//2 3//3
f 4//4 5//5 6//6
f 7//7 8//8 9//9
f 10//10 11//11 12//12