o LetterSegment3
v -0.0086538461538461543 0 0.11442307692307692
v 0.0086538461538461543 0 0.11442307692307692
v 0.0086538461538461543 0 0.019457692307692311
v -0.0086538461538461543 0 0.11442307692307692
v 0.0086538461538461543 0 0.019457692307692311
v 0 0 0.0021423076923077007
v 0 0 0.0021423076923077007
v -0.0086538461538461543 0 0.019457692307692311
v -0.0086538461538461543 0 0.11442307692307692
vn 0 1 0
vn 0 1 0
vn 0 1 0
vn 0 1 0
vn 0 1 0
vn 0 1 0
vn 0 1 0
vn 0 1 0
vn 0 1 0

g LetterSegment3
f 1//1 2//2 3//3
f 4//4 5//5 6//6
f 7//7 8//8 9//9