o LetterSegment11
v -0.010576923076923078 0 -0.019003846153846163
v -0.010576923076923078 0 -0.033946153846153848
v -0.047723076923076931 0 -0.11442307692307692
v -0.010576923076923078 0 -0.019003846153846163
v -0.047723076923076931 0 -0.11442307692307692
v -0.05673076923076923 0 -0.11442307692307692
v -0.010576923076923078 0 -0.019003846153846163
v -0.05673076923076923 0 -0.11442307692307692
v -0.05673076923076923 0 -0.09265384615384617
v -0.0021423076923076869 0 -0.0021423076923077007
v -0.010576923076923078 0 -0.019003846153846163
v -0.05673076923076923 0 -0.09265384615384617
v -0.0021423076923076869 0 -0.0021423076923077007
v -0.05673076923076923 0 -0.09265384615384617
v -0.018846153846153842 0 -0.010576923076923078
v -0.0021423076923076869 0 -0.0021423076923077007
v -0.018846153846153842 0 -0.010576923076923078
v -0.019003846153846149 0 -0.010576923076923078
vn 0 1 0
vn 0 1 0
vn 0 1 0
vn 0 1 0
vn 0 1 0
vn 0 1 0
vn 0 1 0
vn 0 1 0
vn 0 1 0
vn 0 1 0
vn 0 1 0
vn 0 1 0
vn 0 1 0
vn 0 1 0
vn 0 1 0
vn 0 1 0
vn 0 1 0
vn 0 1 0

g LetterSegment11
f 1//1 2//2 3//3
f 4//4 5//5 6//6
f 7//7 8//8 9//9
f 10//10 11//11 12//12
f 13//13 14//14 15//15
f 16//16 17//17 18//18