o LetterSegment6
v 0.019457692307692297 0 0.0086538461538461543
v 0.0572923076923077 0 0.0086538461538461543
v 0.065942307692307689 0 0
v 0.019457692307692297 0 0.0086538461538461543
v 0.065942307692307689 0 0
v 0.0572923076923077 0 -0.0086538461538461543
v 0.019457692307692297 0 0.0086538461538461543
v 0.0572923076923077 0 -0.0086538461538461543
v 0.019457692307692311 0 -0.0086538461538461543
v 0.019457692307692311 0 -0.0086538461538461543
v 0.0021423076923076869 0 0
v 0.019457692307692297 0 0.0086538461538461543
vn 0 1 0
vn 0 1 0
vn 0 1 0
vn 0 1 0
vn 0 1 0
vn 0 1 0
vn 0 1 0
vn 0 1 0
vn 0 1 0
vn 0 1 0
vn 0 1 0
vn 0 1 0

g LetterSegment6
f 1//1 2//2 3//3
f 4//4 5//5 6//6
f 7//7 8//8 9//9
f 10//10 11//11 12//12