o Disc
v 0 0 0
v 0.99452189536827329 0 0.10452846326765346
v 1 0 0
v 0.97814760073380569 0 0.20791169081775932
v 0.95105651629515353 0 0.3090169943749474
v 0.91354545764260087 0 0.40673664307580015
v 0.86602540378443871 0 0.49999999999999994
v 0.80901699437494745 0 0.58778525229247314
v 0.74314482547739424 0 0.66913060635885824
v 0.66913060635885824 0 0.74314482547739413
v 0.58778525229247314 0 0.80901699437494745
v 0.50000000000000011 0 0.8660254037844386
v 0.40673664307580021 0 0.91354545764260087
v 0.30901699437494745 0 0.95105651629515353
v 0.20791169081775945 0 0.97814760073380558
v 0.10452846326765346 0 0.99452189536827329
v 6.1230317691118863E-17 0 1
v -0.10452846326765333 0 0.9945218953682734
v -0.20791169081775912 0 0.97814760073380569
v -0.30901699437494734 0 0.95105651629515364
v -0.40673664307580004 0 0.913545457642601
v -0.49999999999999978 0 0.86602540378443871
v -0.587785252292473 0 0.80901699437494745
v -0.66913060635885824 0 0.74314482547739424
v -0.743144825477394 0 0.66913060635885835
v -0.80901699437494734 0 0.58778525229247325
v -0.86602540378443871 0 0.49999999999999994
v -0.91354545764260076 0 0.40673664307580043
v -0.95105651629515353 0 0.30901699437494751
v -0.97814760073380569 0 0.20791169081775932
v -0.99452189536827329 0 0.10452846326765374
v -1 0 1.2246063538223773E-16
v -0.9945218953682734 0 -0.10452846326765306
v -0.97814760073380569 0 -0.20791169081775907
v -0.95105651629515353 0 -0.30901699437494773
v -0.91354545764260109 0 -0.40673664307579982
v -0.8660254037844386 0 -0.50000000000000011
v -0.80901699437494756 0 -0.587785252292473
v -0.74314482547739424 0 -0.66913060635885824
v -0.66913060635885846 0 -0.743144825477394
v -0.58778525229247325 0 -0.80901699437494734
v -0.50000000000000044 0 -0.86602540378443837
v -0.4067366430758001 0 -0.913545457642601
v -0.30901699437494756 0 -0.95105651629515353
v -0.20791169081775979 0 -0.97814760073380558
v -0.10452846326765336 0 -0.9945218953682734
v -1.8369095307335659E-16 0 -1
v 0.10452846326765299 0 -0.9945218953682734
v 0.20791169081775857 0 -0.9781476007338058
v 0.30901699437494723 0 -0.95105651629515364
v 0.40673664307580054 0 -0.91354545764260076
v 0.50000000000000011 0 -0.8660254037844386
v 0.58778525229247292 0 -0.80901699437494756
v 0.66913060635885779 0 -0.74314482547739458
v 0.74314482547739424 0 -0.66913060635885813
v 0.80901699437494734 0 -0.58778525229247336
v 0.86602540378443837 0 -0.50000000000000044
v 0.913545457642601 0 -0.40673664307580015
v 0.95105651629515353 0 -0.30901699437494762
v 0.97814760073380558 0 -0.20791169081775987
v 0.99452189536827329 0 -0.10452846326765342
vn 0 1 0
vt -0.5 0.5
vt -0.99726094768413664 0.55226423163382676
vt -1 0.5
vt -0.98907380036690284 0.6039558454088797
vt -0.97552825814757682 0.65450849718747373
vt -0.95677272882130038 0.70336832153790008
vt -0.93301270189221941 0.75
vt -0.90450849718747373 0.79389262614623657
vt -0.87157241273869712 0.83456530317942912
vt -0.83456530317942912 0.871572412738697
vt -0.79389262614623657 0.90450849718747373
vt -0.75 0.9330127018922193
vt -0.70336832153790008 0.95677272882130038
vt -0.65450849718747373 0.97552825814757682
vt -0.6039558454088797 0.98907380036690284
vt -0.55226423163382676 0.99726094768413664
vt -0.5 1
vt -0.44773576836617335 0.99726094768413676
vt -0.39604415459112041 0.98907380036690284
vt -0.34549150281252633 0.97552825814757682
vt -0.2966316784621 0.95677272882130049
vt -0.25000000000000011 0.93301270189221941
vt -0.20610737385376349 0.90450849718747373
vt -0.16543469682057088 0.87157241273869712
vt -0.128427587261303 0.83456530317942912
vt -0.09549150281252633 0.79389262614623668
vt -0.066987298107780646 0.75
vt -0.043227271178699622 0.70336832153790019
vt -0.024471741852423234 0.65450849718747373
vt -0.010926199633097156 0.6039558454088797
vt -0.0027390523158633551 0.55226423163382687
vt 0 0.50000000000000011
vt -0.0027390523158632996 0.44773576836617346
vt -0.010926199633097156 0.39604415459112047
vt -0.024471741852423234 0.34549150281252616
vt -0.043227271178699456 0.29663167846210009
vt -0.0669872981077807 0.24999999999999994
vt -0.095491502812526219 0.20610737385376349
vt -0.12842758726130288 0.16543469682057088
vt -0.16543469682057077 0.128427587261303
vt -0.20610737385376338 0.09549150281252633
vt -0.24999999999999978 0.066987298107780813
vt -0.29663167846209992 0.043227271178699511
vt -0.34549150281252622 0.024471741852423234
vt -0.39604415459112008 0.010926199633097211
vt -0.44773576836617335 0.0027390523158632996
vt -0.49999999999999989 0
vt -0.55226423163382654 0.0027390523158632996
vt -0.60395584540887925 0.0109261996330971
vt -0.65450849718747361 0.024471741852423179
vt -0.7033683215379003 0.043227271178699622
vt -0.75 0.0669872981077807
vt -0.79389262614623646 0.095491502812526219
vt -0.8345653031794289 0.12842758726130271
vt -0.87157241273869712 0.16543469682057094
vt -0.90450849718747373 0.20610737385376332
vt -0.93301270189221919 0.24999999999999978
vt -0.95677272882130049 0.29663167846209992
vt -0.97552825814757682 0.34549150281252616
vt -0.98907380036690284 0.39604415459112008
vt -0.99726094768413664 0.44773576836617329
g Disc
f 1/1/1 2/2/1 3/3/1
f 1/1/1 4/4/1 2/2/1
f 1/1/1 5/5/1 4/4/1
f 1/1/1 6/6/1 5/5/1
f 1/1/1 7/7/1 6/6/1
f 1/1/1 8/8/1 7/7/1
f 1/1/1 9/9/1 8/8/1
f 1/1/1 10/10/1 9/9/1
f 1/1/1 11/11/1 10/10/1
f 1/1/1 12/12/1 11/11/1
f 1/1/1 13/13/1 12/12/1
f 1/1/1 14/14/1 13/13/1
f 1/1/1 15/15/1 14/14/1
f 1/1/1 16/16/1 15/15/1
f 1/1/1 17/17/1 16/16/1
f 1/1/1 18/18/1 17/17/1
f 1/1/1 19/19/1 18/18/1
f 1/1/1 20/20/1 19/19/1
f 1/1/1 21/21/1 20/20/1
f 1/1/1 22/22/1 21/21/1
f 1/1/1 23/23/1 22/22/1
f 1/1/1 24/24/1 23/23/1
f 1/1/1 25/25/1 24/24/1
f 1/1/1 26/26/1 25/25/1
f 1/1/1 27/27/1 26/26/1
f 1/1/1 28/28/1 27/27/1
f 1/1/1 29/29/1 28/28/1
f 1/1/1 30/30/1 29/29/1
f 1/1/1 31/31/1 30/30/1
f 1/1/1 32/32/1 31/31/1
f 1/1/1 33/33/1 32/32/1
f 1/1/1 34/34/1 33/33/1
f 1/1/1 35/35/1 34/34/1
f 1/1/1 36/36/1 35/35/1
f 1/1/1 37/37/1 36/36/1
f 1/1/1 38/38/1 37/37/1
f 1/1/1 39/39/1 38/38/1
f 1/1/1 40/40/1 39/39/1
f 1/1/1 41/41/1 40/40/1
f 1/1/1 42/42/1 41/41/1
f 1/1/1 43/43/1 42/42/1
f 1/1/1 44/44/1 43/43/1
f 1/1/1 45/45/1 44/44/1
f 1/1/1 46/46/1 45/45/1
f 1/1/1 47/47/1 46/46/1
f 1/1/1 48/48/1 47/47/1
f 1/1/1 49/49/1 48/48/1
f 1/1/1 50/50/1 49/49/1
f 1/1/1 51/51/1 50/50/1
f 1/1/1 52/52/1 51/51/1
f 1/1/1 53/53/1 52/52/1
f 1/1/1 54/54/1 53/53/1
f 1/1/1 55/55/1 54/54/1
f 1/1/1 56/56/1 55/55/1
f 1/1/1 57/57/1 56/56/1
f 1/1/1 58/58/1 57/57/1
f 1/1/1 59/59/1 58/58/1
f 1/1/1 60/60/1 59/59/1
f 1/1/1 61/61/1 60/60/1
f 1/1/1 3/3/1 61/61/1
