o Button
v -0.1 0.05 0
v -0.15 0 0
v 0.15 0 0
v 0.1 0.05 0
v 0.1 0.05 0
v 0.15 0 0
v 0 0 -0.07
v 0 0.05 -0.05
v 0 0.05 -0.05
v 0 0 -0.07
v -0.15 0 0
v -0.1 0.05 0
v -0.1 0.05 0
v 0.1 0.05 0
v 0 0.05 -0.05
vn 0 0 1
vn 0 0 1
vn 0 0 1
vn 0 0 1
vn 0.408248290463863 0.40824829046386291 -0.816496580927726
vn 0.3894904188522601 0.38949041885226005 -0.83462232611198584
vn 0.39757328397294533 0.3407771005482389 -0.851942751370597
vn 0.42107596053325946 0.33686076842660762 -0.84215192106651893
vn -0.42107596053325946 0.33686076842660762 -0.84215192106651893
vn -0.39757328397294533 0.3407771005482389 -0.851942751370597
vn -0.3894904188522601 0.38949041885226005 -0.83462232611198584
vn -0.408248290463863 0.40824829046386291 -0.816496580927726
vn 0 1 0
vn 0 1 0
vn 0 1 0
vt 1 0
vt 1 1
vt 0.5 1
vt 0.5 0
vt 0.5 0
vt 0.5 1
vt 0 1
vt 0 0
vt 0 0
vt 0 1
vt 1 1
vt 1 0
g Button
f 1/1/1 2/2/2 3/3/3 4/4/4
f 5/5/5 6/6/6 7/7/7 8/8/8
f 9/9/9 10/10/10 11/11/11 12/12/12
f 13//13 14//14 15//15